<?xml version="1.0" standalone="no"?>
<!DOCTYPE svg PUBLIC "-//W3C//DTD SVG 20010904//EN"
 "http://www.w3.org/TR/2001/REC-SVG-20010904/DTD/svg10.dtd">
<svg version="1.0" xmlns="http://www.w3.org/2000/svg"
 width="128.000000pt" height="128.000000pt" viewBox="0 0 128.000000 128.000000"
 preserveAspectRatio="xMidYMid meet">
<metadata>
Created by potrace 1.11, written by Peter Selinger 2001-2013
</metadata>
<g transform="translate(0.000000,128.000000) scale(0.100000,-0.100000)"
fill="#000000" stroke="none">
<path d="M910 957 c-3 -3 -27 -8 -55 -12 -60 -8 -76 -19 -73 -54 3 -40 -10
-53 -48 -48 -42 6 -54 -8 -56 -65 -1 -67 14 -86 67 -90 57 -4 48 -26 -14 -32
-23 -2 -45 -6 -47 -9 -2 -2 -5 -32 -5 -67 -1 -55 2 -66 22 -82 13 -11 19 -17
12 -14 -18 10 -42 -21 -37 -48 2 -14 -1 -37 -6 -51 -14 -36 0 -51 46 -53 72
-3 138 45 175 124 22 49 39 58 68 38 20 -14 21 -21 15 -89 -6 -70 -6 -73 17
-80 40 -13 103 -7 116 11 7 10 12 44 11 80 -2 66 12 96 41 93 39 -3 41 0 41
71 0 65 -1 70 -24 76 -14 3 -29 3 -34 0 -8 -5 -22 14 -22 29 0 2 17 5 38 7
l37 3 3 65 c3 68 -12 96 -45 83 -21 -8 -33 15 -33 65 0 26 -5 42 -12 43 -133
12 -141 9 -142 -57 -1 -27 -4 -48 -8 -46 -5 1 -12 2 -17 2 -5 0 -8 18 -6 40 2
36 -14 78 -25 67z"/>
<path d="M133 935 c-19 -14 -27 -99 -12 -127 7 -13 18 -18 29 -15 24 6 43 -16
36 -41 -4 -11 -36 -47 -71 -81 l-65 -61 26 -43 c15 -23 36 -52 47 -64 19 -22
22 -22 39 -6 10 9 21 13 25 9 4 -4 8 -40 8 -81 1 -40 7 -80 13 -87 15 -18 109
-23 128 -7 8 6 14 24 14 40 0 31 3 32 78 31 39 -1 63 -17 55 -38 -10 -28 16
-42 77 -43 35 0 62 5 67 12 4 6 7 95 7 196 1 138 -2 188 -12 198 -9 9 -46 12
-128 11 -124 -1 -152 8 -121 39 13 14 38 17 132 18 73 0 119 5 126 12 15 15
22 103 9 123 -8 13 -47 15 -250 16 -167 0 -246 -3 -257 -11z m337 -356 c0 -5
0 -12 0 -16 0 -11 -111 -10 -117 1 -3 4 -1 11 5 15 17 10 112 10 112 0z"/>
</g>
</svg>
