<svg class="big" xmlns="http://www.w3.org/2000/svg" viewBox="0 0 339.68 333.6"><title>adam</title><g id="Layer_2" data-name="Layer 2"><g id="Layer_2-2" data-name="Layer 2"><path d="M267.27,86.89l3.25-5.37L259.78,70.1,254.22,73,237.36,55.09l44.41-21.22,26.16,27.8-24,42.89ZM285.39,57l-14.27,6.48,6.79,7.22Z"/><path d="M328.43,93l9.7,39.75c1.84,7.51,1.26,13.15-1.9,18.27-2.91,4.69-7.57,7.85-13.92,9.4-8.2,2-14.92.54-20.78-4.48-5.09-4.25-8.49-10.15-10.34-17.74l-8.32-34.08Zm-25.31,34.77c.87,3.55,1.74,5.36,3.35,6.92a8.63,8.63,0,0,0,8.21,1.9c4.78-1.16,6.64-4.51,5.39-9.63l-1.63-6.7-16.19,4Z"/><path d="M286.91,205.07l6.28,0,4.1-15.13-5.39-3.21,6.45-23.75,41.33,26.74-10,36.84-49.12,2Zm34.95-.21-13-8.77-2.6,9.57Z"/><path d="M243.24,263.56l16.29,17.78L249.31,258l9.69-8.88,21.83,11.66-15.76-17.22,16.8-15.38,31.67,34.58-22.29,20.42-20.78-11.86,9.94,21.78-22.5,20.61-31.68-34.58Z"/><path d="M206.71,299.55a29.16,29.16,0,0,0-8.09-.34c-6.09.6-7.54,2.37-6.92,8.66l2.3,23.37-24,2.36-3.07-31.2c-1.12-11.47,5-17.09,20.08-18.57a88.56,88.56,0,0,1,18.17.19Z"/><path d="M124.31,276.74l-.26,6.27L139,287.86l3.47-5.23,23.4,7.61-28.75,40-36.29-11.81.46-49.15Zm-1.52,34.91,9.4-12.54L122.76,296Z"/><path d="M65.4,231.41a111.37,111.37,0,0,1,15.74,13.28c9.4,9.3,13.21,15.14,14.29,21.85s-1.55,14.37-7.19,20.07c-5.43,5.5-12.63,8.18-19.14,7.17-6.17-.95-12.61-4.74-19.46-11.51a170.77,170.77,0,0,1-16.52-19.4l13-13a106.86,106.86,0,0,0,11.57,13.9c6.4,6.33,10.33,7.35,14,3.6,3.51-3.55,2.34-7.27-4.41-13.94A71.21,71.21,0,0,0,54,243Z"/><path d="M57.82,206.37c1.27,6.38,1.47,8.9,1.14,12.76q-1.3,14.12-16.8,19c-8.52,2.68-15.73,1.78-21.12-2.71-5.09-4.22-9.2-11.19-12.19-20.71s-3.64-17.65-1.89-24c1.85-6.77,7.25-11.64,15.77-14.32,12.6-4,21.7-.35,28.24,11.3l7.34-7.61,6,19ZM35,214.88c7-2.22,9.8-5.89,8.19-11s-6-6.6-12.88-4.42c-5.7,1.79-7.9,5.36-6.32,10.39S29.36,216.65,35,214.88Z"/><path d="M4.91,133.65l28.22,5.87c2.2.46,3.35.48,4.14.14a5.18,5.18,0,0,0,2.42-3.73,5.1,5.1,0,0,0-.75-4.32c-.59-.63-1.65-1.06-3.85-1.52L6.87,124.22l4.91-23.61,27.74,5.77c7.78,1.61,10.77,3.46,13,8.08,2.4,5,2.51,13.45.28,24.19-2.39,11.49-6.12,19.41-10.78,22.82-3.74,2.81-7,3.07-14.87,1.43L0,157.26Z"/><path d="M60.24,106.6,23.8,77.07,57.66,35.29l11.69,9.47L50.67,67.81l3.39,2.74,18.68-23,8.74,7.08L62.8,77.64l3.06,2.48L84.54,57.06l9.56,7.75Z"/><path d="M90.83,50.17a163.15,163.15,0,0,0,24.8-8.81c1.92-.88,2.65-2,2.07-3.26C117.2,37,116.32,37,114,38l-3.58,1.63c-1.73.79-5.69,2.28-8.3,3.16-5.64,1.87-9.57,1.88-13,.06a14.38,14.38,0,0,1-6.22-7.06c-2.21-4.86-2.26-9.55-.07-13.56,2.5-4.54,9.32-9.57,19.24-14.08A130.51,130.51,0,0,1,125.55,0l5.7,12.54a178.85,178.85,0,0,0-17.88,6.36l-4.8,2.19c-2.95,1.34-3.83,2.44-3.22,3.78.49,1.09,1.68,1.32,3.15.65l7.71-3.43c4.44-1.94,8.8-3.23,11.73-3.41,4.73-.3,9.34,2.71,11.56,7.57a15.18,15.18,0,0,1-1.36,14.67c-3.2,4.86-7.53,7.91-17.32,12.36a128.94,128.94,0,0,1-24.67,8.6Z"/></g></g></svg>