<svg class="lil" xmlns="http://www.w3.org/2000/svg" viewBox="0 0 173.98 186.93"><title>things</title><g id="Layer_2" data-name="Layer 2"><g id="Layer_2-2" data-name="Layer 2"><path d="M20.88,51.23l-10-8.77L6.56,47.41,0,41.64,16.22,23.21,22.79,29,18.4,34l10,8.76Z"/><path d="M46.9,29.8l-4.33-8c-.86-1.6-1.85-1.89-3.47-1S37,22.89,38,24.6l4.22,7.77-9.4,5.1L21.84,17.32l9.39-5.1,3.44,6.32c.44-3,1.89-4.75,5.45-6.68,4.82-2.62,8.26-1.74,10.68,2.72L56.3,24.7Z"/><path d="M64.79,2.74c.16.74,0,.95-1.09,1.18L56.18,5.53c-1.07.23-1.33.11-1.49-.63l-.42-2c-.16-.74,0-.95,1.09-1.18L62.88.11C64-.13,64.21,0,64.37.74ZM58.64,25.05l-4-18.46a28.53,28.53,0,0,0,5.3-.8,28.94,28.94,0,0,0,5.16-1.44l4,18.46Z"/><path d="M87.15,22.7l.66-9c.13-1.81-.54-2.59-2.39-2.72s-2.85.62-3,2.56l-.64,8.82-10.67-.77L72.46,3l10.66.78-.2,2.79c2-2.27,4.16-3,8.2-2.68,5.47.4,7.89,3,7.53,8.06l-.83,11.48Z"/><path d="M124.88,32.66c-1.35,2.72-3,4-5.44,4.3s-6.78-1.19-12.39-4c-2.34-1.16-5.86-3.12-8.4-4.68l1.71-4.79a35,35,0,0,0,7.11,4.6c3.37,1.67,5.34,2.09,6.57,1.46.49-.24.7-.51,1.09-1.31a13,13,0,0,1-7.25-1.71c-2.95-1.47-4.67-3-5.4-4.78-.8-1.95-.5-4.56.82-7.22s3.34-4.64,5.37-5.18,4.06-.09,7,1.36C119,12.4,120.53,14,121,16.35l1-2,9.58,4.75ZM112.64,19c-1.07,2.16-.67,3.94,1.08,4.81s3.41.11,4.46-2c1-1.95.51-3.69-1.21-4.54S113.61,17,112.64,19Z"/><path d="M148.49,44a75.11,75.11,0,0,0-5.13-6c-2.22-2.35-2.72-2.69-3.18-2.26a.51.51,0,0,0-.11.52c.09.32.09.32,1.68,2,3.92,4.24,3.92,4.24,4.44,5.38.71,1.6.06,3.71-1.64,5.32a6,6,0,0,1-6.39,1.55c-1.87-.77-4-2.49-6.74-5.35a94.38,94.38,0,0,1-6.36-7.69l3.66-4.05a70.23,70.23,0,0,0,5.19,6.4,32.16,32.16,0,0,0,2.72,2.69.58.58,0,0,0,.64-.15c.31-.29.25-.6-.21-1.08l-.54-.57-.89-.89c-2.26-2.4-4-4.78-4.31-6.05a5.56,5.56,0,0,1,1.86-5.67A5.72,5.72,0,0,1,139,26.6c1.65.54,3.84,2.32,7.13,5.8,2.19,2.33,5.16,5.75,6.6,7.61Z"/><path d="M144.72,63.09,165.21,55l4.14,10.54-20.49,8.06Z"/><path d="M165.57,79.29l-1-5.48,8.14,1.11L174,81.83Z"/><path d="M152.15,92.86l18.95-5-.78,11-11.72,2,11.33,3.55-.78,10.93-18.05-7.64Z"/><path d="M142.25,134.69c1.05-5.35,1.77-7.88,3.17-11,1.62-3.65,3.51-6.1,5.76-7.44s4.8-1.37,7.82,0,5.34,3.9,5.82,6.64c.45,2.47-.23,5.64-2.11,9.86-2.16,4.85-4.55,7.54-7.37,8.28-1.67.44-4.49,0-6.93-1.06-.36-.16-.83-.41-1.48-.73l5.94-13.36c-1.75-.78-2.69-.12-3.91,2.63a51.66,51.66,0,0,0-3,10.31Zm12-1.54a3.29,3.29,0,0,0,1.88.33,3.2,3.2,0,0,0,2.21-2c.86-1.93.43-3.24-1.41-4.38Z"/><path d="M108.85,162.08l4.71,7.56c1.12,1.79,1.84,2,3.35,1.06s1.82-1.95.7-3.74L113,159.51l9.07-5.65,4.5,7.22c1.19,1.91,2,2.15,3.69,1.12s1.7-1.83.67-3.48l-4.66-7.48,9.07-5.66,9.81,15.74-8.48,5.29L135,164c-.29,3.33-1.49,5.09-4.85,7.18-2.3,1.43-4.25,2-5.83,1.81a5.45,5.45,0,0,1-2.64-1.31,6,6,0,0,1-.38,3.27c-.66,1.62-2,3-4.28,4.42-4.87,3-8.45,2.47-11.09-1.76l-6.16-9.88Z"/><path d="M82,167.62l.18,2.33c1.88-2.26,3.73-3.1,7.39-3.38s6,.52,7.61,2.58a12.12,12.12,0,0,1,2,6.43c.27,3.49-.33,6-1.79,7.72A9.77,9.77,0,0,1,90.79,186c-3.42.27-5.83-.5-7.61-2.49l.2,2.6-10.65.83-1.44-18.49Zm6.65,8.55c-.18-2.4-1.44-3.73-3.38-3.58s-3,1.66-2.8,4,1.45,3.43,3.36,3.28S88.77,178.31,88.6,176.17Z"/><path d="M55.14,163.59l-.7,2.24c2.59-1.41,4.62-1.51,8.12-.42s5.44,2.73,6.11,5.22a12,12,0,0,1-.53,6.71c-1,3.37-2.54,5.5-4.51,6.51a9.82,9.82,0,0,1-7.07.08c-3.28-1-5.23-2.63-6.15-5.12l-2.08,6.68-10.21-3.18,6.81-21.9Zm3,10.41c.71-2.3,0-4-1.83-4.58s-3.38.43-4.07,2.67.08,3.73,1.91,4.29S57.52,176,58.16,174Z"/><path d="M24.8,146a45.59,45.59,0,0,1,9.86,5.84c3.12,2.5,5,4.94,5.74,7.46s.11,5-1.95,7.57-5.12,4.19-7.89,4c-2.51-.19-5.4-1.65-9-4.53-4.15-3.32-6.15-6.31-6.15-9.22a11.92,11.92,0,0,1,2.78-6.45c.25-.3.6-.7,1.08-1.24l11.43,9.12c1.19-1.49.79-2.58-1.56-4.45a51.83,51.83,0,0,0-9.23-5.47Zm-1.54,12a2.81,2.81,0,0,0,.56,4.37c1.65,1.32,3,1.24,4.6-.25Z"/></g></g></svg>